<svg width="188" height="77" viewBox="0 0 188 77" fill="none" xmlns="http://www.w3.org/2000/svg">
<path d="M2.89562 63.864C3.08756 63.636 3.02622 62.8315 3.2814 62.4528C4.58717 60.5151 5.90392 58.5888 7.36518 56.7627C12.0124 50.9552 17.7186 46.3466 23.8958 42.2262C33.8473 35.5883 44.265 29.4801 55.3831 25.0177C65.0564 21.1352 76.7137 17.332 87.2621 19.2782C92.4057 20.2272 101.438 23.2784 102.51 29.3877C103.798 36.7249 96.3427 44.7414 91.7877 49.5242C83.9605 57.7429 73.1835 64.4522 62.8441 68.9947C56.2219 71.9042 45.7327 76.4139 38.7056 72.146C32.5011 68.3776 36.9206 60.7779 40.2673 56.4686C48.374 46.0302 59.9232 38.5869 71.4188 32.3452C84.9804 24.9817 100.056 19.1113 115.637 18.4578C122.721 18.1606 134.3 18.169 138.842 25.0017C143.167 31.5098 136.783 39.7469 132.639 44.4118C126.351 51.491 117.548 57.22 109.171 61.5427C108.036 62.1286 99.5709 66.4782 99.7657 62.2004C100.034 56.309 106.998 49.7881 110.571 45.7932C119.066 36.2948 130.621 29.7469 141.507 23.3854C148.58 19.2521 155.74 15.256 163.361 12.2041C164.462 11.7632 167.926 9.82957 169.118 10.9795C171.121 12.912 157.907 17.6943 157.109 17.9923C156.572 18.1926 152.363 19.9904 152.284 18.3815C152.226 17.2258 152.803 16.0806 152.754 14.894C152.443 7.38287 142.069 6.34954 136.693 5.13719C136.384 5.06757 132.953 4.13167 133.531 3.49217C134.985 1.88425 141.514 3.17001 143.271 3.21769C152.186 3.45958 161.114 3.53944 170.032 3.65553C173.48 3.70042 176.935 3.60381 180.376 3.89605C181.626 4.0023 184.076 4.01706 184.977 5.118C186.557 7.05033 176.033 14.5678 174.867 15.4967C170.214 19.2044 165.308 22.5759 161.454 27.1532" stroke="#E2861C" stroke-width="4.9555" stroke-linecap="round" stroke-linejoin="round"/>
</svg>
