<svg width="475" height="443" viewBox="0 0 475 443" fill="none" xmlns="http://www.w3.org/2000/svg">
<path d="M323.568 371.826L50.1853 269.882M323.568 371.826L318.883 143.856M323.568 371.826L405.105 96.0571M323.568 371.826L148.817 221.998M50.1853 269.882L51.2405 154.531M50.1853 269.882L148.817 221.998M318.883 143.856L148.817 221.998M318.883 143.856L178.241 63.357M318.883 143.856L316.043 28.9992M318.883 143.856L405.105 96.0571M51.2405 154.531L148.817 221.998M51.2405 154.531L178.241 63.357M148.817 221.998L178.241 63.357M178.241 63.357L316.043 28.9992M316.043 28.9992L405.105 96.0571" stroke="#FFEBEB" stroke-width="20"/>
</svg>
