<svg width="110" height="117" viewBox="0 0 110 117" fill="none" xmlns="http://www.w3.org/2000/svg">
<g clip-path="url(#clip0_481_27593)">
<mask id="mask0_481_27593" style="mask-type:luminance" maskUnits="userSpaceOnUse" x="41" y="39" width="28" height="34">
<path d="M41.7068 39.8148H68.9842V72.1681H41.7068V39.8148Z" fill="white"/>
</mask>
<g mask="url(#mask0_481_27593)">
<path d="M55.1656 39.8212H41.3605L3.48608 72.7989H13.6571L26.0573 61.9215L41.3792 62.0158V72.7831H49.2838V62.063H55.1844C62.7893 62.063 69.008 57.0646 69.008 50.9501C68.9892 44.8356 62.7706 39.8212 55.1656 39.8212ZM33.3438 55.5397L41.3605 48.498V55.5397H33.3438ZM55.1656 55.5397L49.2651 55.524V46.3916H55.1656C58.4249 46.3916 61.0846 48.4194 61.0846 50.9186C61.0846 53.465 58.4436 55.5555 55.1656 55.5397Z" fill="#FB5151"/>
</g>
<mask id="mask1_481_27593" style="mask-type:luminance" maskUnits="userSpaceOnUse" x="4" y="39" width="38" height="34">
<path d="M4.43909 39.605H41.7314V72.276H4.43909V39.605Z" fill="white"/>
</mask>
<g mask="url(#mask1_481_27593)">
<path d="M55.6336 39.6112H41.9582L4.43909 72.2789H14.5148L26.7983 61.5038L41.9766 61.5973V72.2635H49.807V61.6439H55.652C63.1856 61.6439 69.3457 56.6924 69.3457 50.6353C69.3273 44.5782 63.1668 39.6112 55.6336 39.6112ZM34.0164 55.1819L41.9582 48.2062V55.1819H34.0164ZM55.6336 55.1819L49.7886 55.1665V46.1198H55.6336C58.8622 46.1198 61.497 48.1284 61.497 50.6041C61.497 53.1268 58.8806 55.1977 55.6336 55.1819Z" fill="#FB5151"/>
</g>
<path d="M76.826 72.2685C68.4176 64.7293 68.4389 47.1483 76.826 39.6209C77.697 38.8394 79.1953 38.9009 79.9702 39.7503L81.6605 41.6036C82.2609 42.2616 82.2159 43.1811 81.5638 43.8036C76.0284 49.0885 76.0284 62.8001 81.5638 68.0856C82.2159 68.7081 82.2606 69.6276 81.6605 70.2856L79.9696 72.1392C79.1949 72.9886 77.697 73.0496 76.8257 72.2685H76.826Z" fill="#FB5151"/>
<path d="M80.0527 72.0471L79.9696 72.1386C79.1949 72.9881 77.6973 73.049 76.826 72.268C68.4176 64.7293 68.4386 47.1483 76.826 39.621C77.6973 38.8391 79.1956 38.9012 79.9702 39.7503L80.0534 39.8413C71.9847 47.4112 71.965 64.4651 80.0524 72.0468L80.0527 72.0471Z" fill="#FB5151"/>
<path d="M96.1825 72.378C104.591 64.8388 104.57 47.2578 96.1825 39.7304C95.3119 38.9488 93.8136 39.0101 93.0383 39.8598L91.348 41.7131C90.7476 42.3711 90.793 43.2906 91.4447 43.913C96.9801 49.198 96.9801 62.9096 91.4447 68.1948C90.793 68.8173 90.7479 69.737 91.348 70.3951L93.0389 72.2486C93.8139 73.0981 95.3119 73.159 96.1828 72.378H96.1825Z" fill="#FB5151"/>
<path d="M94.8147 70.3951L96.4224 72.1566C96.3435 72.2313 96.264 72.3047 96.1825 72.3778C95.3116 73.1588 93.8139 73.0976 93.039 72.2484L91.3481 70.3954C90.7473 69.7374 90.7927 68.8179 91.4444 68.1952C96.9798 62.9102 96.9798 49.1983 91.4444 43.9131C90.793 43.2906 90.7476 42.3714 91.3481 41.7131L93.038 39.8601C93.8129 39.0104 95.3116 38.9486 96.1822 39.7308C96.263 39.8036 96.3432 39.8769 96.4214 39.9511L94.8147 41.7131C94.2139 42.3712 94.2589 43.2904 94.911 43.9131C100.446 49.198 100.446 62.91 94.911 68.1952C94.2592 68.8176 94.2142 69.7371 94.8147 70.3954V70.3951Z" fill="#FB5151"/>
</g>
<defs>
<clipPath id="clip0_481_27593">
<rect width="109.037" height="122" fill="white" transform="translate(0 -5)"/>
</clipPath>
</defs>
</svg>
