<svg width="99" height="34" viewBox="0 0 99 34" fill="none" xmlns="http://www.w3.org/2000/svg">
<mask id="mask0_624_55" style="mask-type:luminance" maskUnits="userSpaceOnUse" x="37" y="0" width="28" height="34">
<path d="M37.2676 0.743164H64.545V33.0965H37.2676V0.743164Z" fill="white"/>
</mask>
<g mask="url(#mask0_624_55)">
<path d="M50.7264 0.749512H36.9212L-0.953171 33.7272H9.21783L21.618 22.8498L36.9399 22.9441V33.7115H44.8446V22.9913H50.7451C58.35 22.9913 64.5687 17.9929 64.5687 11.8784C64.55 5.7639 58.3313 0.749512 50.7264 0.749512ZM28.9045 16.4681L36.9212 9.42637V16.4681H28.9045ZM50.7264 16.4681L44.8258 16.4524V7.3199H50.7264C53.9856 7.3199 56.6453 9.34777 56.6453 11.847C56.6453 14.3933 54.0043 16.4838 50.7264 16.4681Z" fill="#FB5151"/>
</g>
<mask id="mask1_624_55" style="mask-type:luminance" maskUnits="userSpaceOnUse" x="0" y="0" width="38" height="34">
<path d="M0 0.533203H37.2923V33.2042H0V0.533203Z" fill="white"/>
</mask>
<g mask="url(#mask1_624_55)">
<path d="M51.1945 0.539307H37.5191L-7.62939e-06 33.207H10.0757L22.3592 22.4319L37.5375 22.5254V33.1916H45.3679V22.572H51.2129C58.7465 22.572 64.9066 17.6205 64.9066 11.5634C64.8882 5.50626 58.7277 0.539307 51.1945 0.539307ZM29.5773 16.11L37.5191 9.13425V16.11H29.5773ZM51.1945 16.11L45.3495 16.0946V7.04791H51.1945C54.4231 7.04791 57.0579 9.05648 57.0579 11.5322C57.0579 14.0549 54.4415 16.1258 51.1945 16.11Z" fill="#FB5151"/>
</g>
<path d="M72.387 33.1966C63.9785 25.6574 63.9999 8.07642 72.387 0.54905C73.2579 -0.232535 74.7562 -0.171034 75.5311 0.678395L77.2214 2.53169C77.8218 3.18972 77.7768 4.1092 77.1247 4.73166C71.5893 10.0166 71.5893 23.7282 77.1247 29.0137C77.7768 29.6362 77.8215 30.5557 77.2214 31.2137L75.5305 33.0673C74.7559 33.9167 73.2579 33.9777 72.3866 33.1966H72.387Z" fill="#FB5151"/>
<path d="M75.6137 32.9752L75.5306 33.0667C74.756 33.9162 73.2583 33.9771 72.3871 33.1961C63.9786 25.6574 63.9997 8.07643 72.3871 0.549062C73.2583 -0.232799 74.7566 -0.170746 75.5313 0.678407L75.6144 0.769417C67.5458 8.33926 67.526 25.3932 75.6134 32.9749L75.6137 32.9752Z" fill="#FB5151"/>
<path d="M91.7435 33.3061C100.152 25.7669 100.131 8.18589 91.7435 0.658522C90.8729 -0.123063 89.3746 -0.0618378 88.5993 0.787867L86.9091 2.64117C86.3086 3.2992 86.354 4.21868 87.0057 4.84113C92.5411 10.1261 92.5411 23.8377 87.0057 29.1229C86.354 29.7454 86.309 30.6651 86.9091 31.3232L88.6 33.1767C89.3749 34.0262 90.8729 34.0871 91.7438 33.3061H91.7435Z" fill="#FB5151"/>
<path d="M90.3755 31.3231L91.9832 33.0846C91.9043 33.1593 91.8248 33.2327 91.7433 33.3058C90.8724 34.0868 89.3747 34.0256 88.5998 33.1764L86.9089 31.3234C86.3081 30.6654 86.3535 29.7459 87.0052 29.1232C92.5406 23.8382 92.5406 10.1263 87.0052 4.84107C86.3538 4.21862 86.3084 3.29942 86.9089 2.64111L88.5988 0.788085C89.3737 -0.0616197 90.8724 -0.123396 91.743 0.65874C91.8238 0.731548 91.904 0.804908 91.9822 0.879095L90.3755 2.64111C89.7747 3.29914 89.8197 4.21834 90.4717 4.84107C96.0072 10.126 96.0072 23.8379 90.4717 29.1232C89.82 29.7456 89.775 30.6651 90.3755 31.3234V31.3231Z" fill="#FB5151"/>
</svg>
