<svg width="678" height="617" viewBox="0 0 678 617" fill="none" xmlns="http://www.w3.org/2000/svg">
<path d="M215.788 460.671C272.591 498.496 348.412 493.58 425.487 426.109C528.141 336.245 547.343 177.645 468.719 91.3682C408.046 24.7899 314.825 71.0189 248.646 145.735M215.788 460.671C196.937 448.118 180.18 430.856 166.167 409.611C119.64 339.07 125.867 209.399 248.646 145.735M215.788 460.671C166.508 396.4 154.879 299.132 198.552 217.349C211.854 192.44 229.067 167.841 248.646 145.735M215.788 460.671C232.25 482.14 252.913 499.927 277.119 512.225C348.904 548.695 460.922 511.094 524.058 400.905M248.646 145.735C274.262 132.453 304.951 122.044 341.292 115.644" stroke="#7289DA" stroke-width="12"/>
</svg>
